<?xml version="1.0" standalone="no"?>
<!DOCTYPE svg PUBLIC "-//W3C//DTD SVG 20010904//EN"
 "http://www.w3.org/TR/2001/REC-SVG-20010904/DTD/svg10.dtd">
<svg version="1.0" xmlns="http://www.w3.org/2000/svg"
 width="408.000000pt" height="378.000000pt" viewBox="0 0 408.000000 378.000000"
 preserveAspectRatio="xMidYMid meet">

<g transform="translate(0.000000,378.000000) scale(0.100000,-0.100000)"
fill="#000000" stroke="none">
<path d="M924 3411 c-51 -23 -99 -81 -113 -137 -15 -59 -15 -909 0 -968 14
-56 62 -114 113 -137 38 -17 74 -19 449 -19 375 0 412 2 461 19 109 38 184
110 231 219 19 44 20 73 23 449 2 269 -1 415 -8 443 -13 49 -60 105 -111 131
-36 18 -63 19 -521 19 -448 0 -486 -2 -524 -19z" fill="#FFFFFF"/>
<path d="M2301 3408 c-49 -24 -96 -83 -112 -140 -6 -25 -9 -181 -7 -436 l3
-397 32 -67 c39 -82 100 -145 179 -184 l59 -29 227 -3 c260 -4 301 3 433 67
150 74 268 212 321 374 23 70 27 99 27 197 0 98 -4 127 -27 197 -53 162 -171
300 -321 374 -133 65 -163 69 -485 69 -269 -1 -287 -2 -329 -22z" fill="#FAF9FB"/>
<path d="M921 2028 c-49 -24 -96 -83 -111 -139 -6 -22 -9 -154 -8 -327 l3
-289 205 59 c228 66 263 68 330 24 22 -14 49 -45 61 -68 35 -69 25 -116 -73
-328 l-84 -185 319 -3 c192 -1 334 2 356 8 58 15 116 63 142 117 l24 48 0 405
c0 373 -1 409 -19 456 -39 106 -117 184 -222 224 -52 19 -77 20 -467 20 -402
0 -413 -1 -456 -22z" fill="#6CCB92"/>
<path d="M2429 2031 c-108 -42 -187 -122 -225 -225 -18 -47 -19 -83 -19 -467
l0 -416 30 -48 c22 -36 45 -57 85 -78 l55 -28 300 3 c276 4 305 6 365 26 195
65 349 218 414 412 24 71 29 102 30 190 1 124 -13 187 -64 295 -69 145 -210
270 -370 327 -60 21 -83 23 -310 25 -218 2 -250 1 -291 -16z" fill="#FAF9FB"/>
<path d="M820 1186 c-218 -62 -406 -118 -418 -125 -40 -21 -56 -87 -32 -131 6
-11 78 -54 160 -95 116 -59 153 -83 168 -108 11 -18 39 -93 61 -167 23 -74 46
-145 52 -156 22 -43 100 -58 138 -26 32 26 372 766 378 823 5 42 3 48 -27 72
-18 16 -43 27 -58 26 -15 0 -205 -51 -422 -113z" fill="#FAF9FB"/>
</g>
</svg>
