<svg id="Layer_1" data-name="Layer 1" xmlns="http://www.w3.org/2000/svg" viewBox="0 0 913.76 920.58"><title>left</title><path d="M517.28,58c65.8,33.91,157.26,25.33,229.7,8.25,24.25-5.75,49.88-12.25,76.68-8.39a109.21,109.21,0,0,1,72.16,43.72c25.77,36,23.66,77.73-5.5,108.71-25.2,26.77-68.21,45-92.17,72.29-40,45.67-18.58,106.65,15.76,159.3,24.27,37.26,55.23,78.16,35.81,113.47-13.67,24.84-50.47,40.94-90.21,48.94-19.18,3.86-40.09,6.39-54.89,14.62-8.79,4.93-14.83,11.5-19.73,18.32-45.28,62.2-11.82,144.25-62.73,204.42-34.32,40.61-103.33,64.77-176.59,73.79S294.39,920,217.7,914c-54.48-4.28-112.77-10.42-156.45-34C15.05,855.08-4.62,814.64.92,779s33-67,66.1-94.33c41.32-34.12,93.72-65.2,108.07-108.52,9.8-29.5.6-61.29-4.24-92.3-8-51.83-3.55-103.2,1.73-154.22,5.07-48.86,11-98,32.6-143.9,15.28-32.47,45.7-57.79,65.94-88.22C284.31,77.64,286.62,55.54,304,37,325.31,14.05,364-6.2,411.86,1.77,457.4,9.33,482.32,40,517.28,58Z" transform="translate(-0.01 0)" fill="#0f4c75" opacity="0.1" style="isolation:isolate"/></svg>