<svg xmlns="http://www.w3.org/2000/svg" width="26.884" height="26.884" viewBox="0 0 26.884 26.884"><path d="M13.442,0A13.442,13.442,0,1,0,26.885,13.442,13.442,13.442,0,0,0,13.442,0ZM9.536,20.321H6.262V10.472H9.536ZM7.9,9.127H7.878a1.706,1.706,0,1,1,.043-3.4,1.707,1.707,0,1,1-.022,3.4ZM21.341,20.321H18.068V15.052c0-1.324-.474-2.227-1.659-2.227a1.792,1.792,0,0,0-1.68,1.2,2.242,2.242,0,0,0-.108.8v5.5H11.348s.043-8.925,0-9.849h3.274v1.395a3.25,3.25,0,0,1,2.95-1.626c2.154,0,3.769,1.408,3.769,4.433Zm0,0" transform="translate(-0.001)" fill="#667cff"/></svg>