<svg xmlns="http://www.w3.org/2000/svg" width="1671.732" height="1111.064" viewBox="0 0 1671.732 1111.064"><path d="M1606.092,647.7c-61.6,80.008-46.007,191.216-14.993,279.3,10.443,29.486,22.243,60.647,15.231,93.238-8.578,39.856-43.546,70.553-79.393,87.737-65.326,31.341-141.154,28.765-197.41-6.686-48.618-30.646-81.661-82.932-131.278-112.071-82.929-48.59-57.119-76.709-152.743-34.947-12.245,5.342-142.69,12.282-149.372,13.293-27.385,4.159-21.2,19.338-73.708,0-38.39-14.141-97.515-31.194-139.867-52.968-6.9-3.542-39.281-3.509-41.446-10.709-.687-2.286-26.323,2.694-27.082,0-5.9-20.952-13.071-12.156-26.554-28.388-8.951-10.692-20.885-18.034-33.252-24-112.944-55.057-261.96-14.363-371.234-76.273C109.251,733.5,65.377,649.584,49,560.507s-8.309-183.822,2.64-277.06C59.41,217.2,70.554,146.321,113.353,93.209c45.276-56.177,118.717-80.1,183.491-73.361s121.731,40.1,171.3,80.382c61.954,50.239,118.4,113.952,197.067,131.394,53.57,11.916,111.3.734,167.6-5.153,94.132-9.726,187.415-4.315,280.07,2.113,88.717,6.157,178,13.384,261.318,39.637,58.956,18.575,104.933,55.572,160.2,80.176,36.027,16.038,76.156,18.846,109.916,39.933,41.591,25.957,78.349,73.026,63.893,131.187C1694.481,574.9,1638.777,605.193,1606.092,647.7Z" transform="translate(-39.693 -18.74)" fill="#8b5235" opacity="0.1"/></svg>