<svg xmlns="http://www.w3.org/2000/svg" width="913.767" height="920.575" viewBox="0 0 913.767 920.575"><path d="M902.265,536.015c-33.919,65.8-25.335,157.261-8.256,229.7,5.75,24.25,12.248,49.878,8.387,76.681a109.134,109.134,0,0,1-43.72,72.157c-35.973,25.776-77.729,23.657-108.708-5.5-26.772-25.2-44.968-68.206-72.291-92.17-45.667-39.961-106.646-18.582-159.3,15.764-37.255,24.271-78.157,55.228-113.464,35.809-24.842-13.667-40.943-50.471-48.944-90.21-3.861-19.186-6.391-40.089-14.623-54.889-4.929-8.793-11.5-14.832-18.311-19.737-62.2-45.28-144.254-11.813-204.428-62.729C78,606.573,53.837,537.562,44.817,464.3s-4.576-151.18,1.454-227.861c4.28-54.486,10.417-112.776,33.985-156.456C105.188,33.784,145.63,14.11,181.3,19.651s67.034,32.98,94.332,66.108c34.117,41.318,65.2,93.717,108.519,108.061,29.5,9.8,61.292.6,92.295-4.238,51.836-8,103.2-3.549,154.227,1.737,48.854,5.064,98.02,11.007,143.9,32.6,32.465,15.277,57.784,45.7,88.22,65.939,19.839,13.19,41.937,15.5,60.528,32.842,22.9,21.347,43.145,60.059,35.184,107.892C950.938,476.136,920.264,501.054,902.265,536.015Z" transform="translate(932.507 -39.693) rotate(90)" fill="#0f4c75" opacity="0.1"/></svg>