<svg xmlns="http://www.w3.org/2000/svg" width="1450.715" height="1403.034" viewBox="0 0 1450.715 1403.034"><path d="M1097.83,536.015c-41.61,65.8-31.079,157.261-10.128,229.7,7.054,24.25,15.025,49.878,10.289,76.681-5.794,32.779-29.416,58.025-53.632,72.157-44.129,25.776-95.353,23.657-133.355-5.5-32.842-25.2-55.164-68.206-88.681-92.17C766.3,776.928,691.5,798.307,626.9,832.654c-45.7,24.271-95.877,55.228-139.189,35.809-30.474-13.667-50.226-50.471-60.041-90.21-4.736-19.186-7.84-40.089-17.938-54.889-6.046-8.793-14.108-14.832-22.463-19.737-76.3-45.28-176.96-11.813-250.777-62.729-49.813-34.325-79.45-103.336-90.515-176.6s-5.613-151.18,1.784-227.861c5.25-54.486,12.778-112.776,41.69-156.456,30.585-46.2,80.2-65.875,123.952-60.334s82.232,32.98,115.719,66.108c41.852,41.318,79.985,93.717,133.123,108.061,36.188,9.8,75.188.6,113.22-4.238,63.589-8,126.6-3.549,189.194,1.737,59.93,5.064,120.244,11.007,176.526,32.6,39.826,15.277,70.885,45.7,108.221,65.939,24.337,13.19,51.445,15.5,74.251,32.842,28.1,21.347,52.927,60.059,43.161,107.892C1157.538,476.136,1119.909,501.054,1097.83,536.015Z" transform="matrix(0.809, 0.588, -0.588, 0.809, 516.001, -38.492)" fill="#0f4c75" opacity="0.1"/></svg>