<svg xmlns="http://www.w3.org/2000/svg" width="27.214" height="27.214" viewBox="0 0 27.214 27.214"><path d="M13.607,0A13.607,13.607,0,1,0,27.214,13.607,13.607,13.607,0,0,0,13.607,0ZM19.82,10.609q.009.2.009.4A8.826,8.826,0,0,1,10.942,19.9h0a8.84,8.84,0,0,1-4.787-1.4,6.352,6.352,0,0,0,.745.043A6.267,6.267,0,0,0,10.779,17.2a3.127,3.127,0,0,1-2.918-2.169,3.113,3.113,0,0,0,1.411-.054,3.124,3.124,0,0,1-2.506-3.061c0-.014,0-.027,0-.04a3.1,3.1,0,0,0,1.415.391A3.126,3.126,0,0,1,7.215,8.1a8.867,8.867,0,0,0,6.438,3.263,3.125,3.125,0,0,1,5.322-2.848,6.264,6.264,0,0,0,1.983-.758,3.135,3.135,0,0,1-1.373,1.727,6.229,6.229,0,0,0,1.793-.492A6.347,6.347,0,0,1,19.82,10.609Zm0,0" fill="#667cff"/></svg>